<?xml version="1.0" standalone="no"?>
<!DOCTYPE svg PUBLIC "-//W3C//DTD SVG 20010904//EN"
 "http://www.w3.org/TR/2001/REC-SVG-20010904/DTD/svg10.dtd">
<svg version="1.0" xmlns="http://www.w3.org/2000/svg"
 width="500.000000pt" height="500.000000pt" viewBox="0 0 500.000000 500.000000"
 preserveAspectRatio="xMidYMid meet">
<metadata>
Created by potrace 1.11, written by Peter Selinger 2001-2013
</metadata>
<g transform="translate(0.000000,500.000000) scale(0.100000,-0.100000)"
fill="#000000" stroke="none">
<path d="M2330 4994 c-19 -2 -78 -9 -130 -14 -282 -31 -586 -125 -850 -262
-602 -313 -1065 -875 -1249 -1518 -71 -248 -95 -427 -95 -700 0 -217 8 -311
45 -495 165 -823 747 -1520 1529 -1829 304 -120 577 -170 920 -170 217 0 311
8 495 45 648 130 1219 515 1590 1074 211 316 339 663 397 1070 21 149 16 503
-10 670 -85 549 -320 1013 -707 1401 -395 395 -896 642 -1455 714 -89 12 -419
21 -480 14z m571 -1084 c608 -60 864 -275 910 -763 44 -462 -185 -825 -619
-981 -163 -58 -254 -71 -527 -70 -137 0 -262 3 -276 7 l-26 7 -6 -428 -5 -427
36 -32 c39 -34 55 -37 245 -49 l107 -6 0 -94 0 -94 -555 0 -555 0 0 90 c0 64
4 92 13 95 6 2 63 9 125 14 104 10 117 13 153 42 l39 31 0 1198 0 1198 -38 34
c-38 35 -41 35 -153 42 -63 4 -126 9 -141 12 l-28 6 0 89 0 89 599 0 c332 0
645 -5 702 -10z"/>
<path d="M2403 3713 l-53 -4 0 -700 c0 -650 1 -699 17 -699 9 0 79 -5 155 -11
455 -36 756 128 847 461 44 161 46 377 5 519 -37 128 -121 245 -224 311 -65
42 -193 87 -298 105 -88 16 -352 27 -449 18z"/>
</g>
</svg>
